<?xml version="1.0" encoding="UTF-8" standalone="no"?>
<!-- Created with Inkscape (http://www.inkscape.org/) -->

<svg
   width="512"
   height="512"
   viewBox="0 0 135.46667 135.46667"
   version="1.1"
   id="svg5"
   inkscape:version="1.1 (c68e22c387, 2021-05-23)"
   sodipodi:docname="logo.svg"
   xmlns:inkscape="http://www.inkscape.org/namespaces/inkscape"
   xmlns:sodipodi="http://sodipodi.sourceforge.net/DTD/sodipodi-0.dtd"
   xmlns:xlink="http://www.w3.org/1999/xlink"
   xmlns="http://www.w3.org/2000/svg"
   xmlns:svg="http://www.w3.org/2000/svg">
  <sodipodi:namedview
     id="namedview7"
     pagecolor="#ffffff"
     bordercolor="#666666"
     borderopacity="1.0"
     inkscape:pageshadow="2"
     inkscape:pageopacity="0.0"
     inkscape:pagecheckerboard="0"
     inkscape:document-units="px"
     showgrid="false"
     inkscape:snap-grids="true"
     inkscape:snap-page="false"
     inkscape:zoom="0.71868055"
     inkscape:cx="128.01237"
     inkscape:cy="274.80916"
     inkscape:window-width="1536"
     inkscape:window-height="811"
     inkscape:window-x="-8"
     inkscape:window-y="22"
     inkscape:window-maximized="1"
     inkscape:current-layer="layer1" />
  <defs
     id="defs2">
    <linearGradient
       id="linearGradient4644"
       inkscape:swatch="solid">
      <stop
         style="stop-color:#000000;stop-opacity:1;"
         offset="0"
         id="stop4642" />
    </linearGradient>
    <linearGradient
       id="linearGradient4604"
       inkscape:swatch="solid">
      <stop
         style="stop-color:#000000;stop-opacity:1;"
         offset="0"
         id="stop4602" />
    </linearGradient>
    <linearGradient
       inkscape:collect="always"
       xlink:href="#linearGradient4604"
       id="linearGradient4606"
       x1="12.835238"
       y1="67.320948"
       x2="119.96129"
       y2="67.320948"
       gradientUnits="userSpaceOnUse" />
    <linearGradient
       inkscape:collect="always"
       xlink:href="#linearGradient4644"
       id="linearGradient4646"
       x1="12.859728"
       y1="101.09181"
       x2="120.03336"
       y2="101.09181"
       gradientUnits="userSpaceOnUse" />
  </defs>
  <g
     inkscape:label="Ebene 1"
     inkscape:groupmode="layer"
     id="layer1">
    <path
       id="path2918"
       style="fill:#000000;fill-opacity:1;fill-rule:nonzero;stroke:none;stroke-width:0.407006"
       d="m 80.016778,32.796586 c -0.569594,-0.0099 -1.128478,0.07938 -1.67348,0.231157 -2.649727,0.904129 -5.140782,2.243828 -7.215949,3.966539 -0.564209,0.456128 -1.007575,1.008745 -1.387293,1.594749 -0.363087,0.607302 -0.628647,1.254281 -0.850171,1.91249 -0.221952,0.712308 -0.444116,1.428023 -0.594193,2.155698 -0.207206,1.113751 -0.196752,2.242233 -0.203102,3.367195 0.0018,1.307949 0.05611,2.614586 0.0856,3.922114 0.01267,0.647719 0.01971,1.295555 0.01681,1.943366 -0.006,0.541658 0.0035,1.082778 0.02182,1.624113 0.01136,0.751568 -0.0083,1.503348 -0.04026,2.254335 -0.06012,0.868697 -0.12986,1.73665 -0.192187,2.605207 -2.98922,1.315993 -5.877728,2.814275 -8.6729,4.43864 -1.12749,0.706019 -2.218633,1.472117 -3.035601,2.478713 -0.986469,1.24925 -1.804387,2.59433 -2.354961,4.048611 -0.433443,1.356338 -0.708782,2.751149 -0.58664,4.168332 0.165301,1.371184 0.559457,2.549639 1.388134,3.726351 0.827024,1.08384 1.738182,2.101684 3.084275,2.693305 1.413547,0.51161 2.874442,0.701759 4.389326,0.448756 1.083129,-0.180469 2.155078,-0.405927 3.205966,-0.694219 -0.518434,2.092416 -1.3091,4.117965 -2.256767,6.083081 -0.08322,0.16196 -0.171227,0.321477 -0.26017,0.481137 2.76e-4,0.0018 4.3e-4,7.71e-4 8.59e-4,0.003 0.01791,0.131587 -0.07056,0.257464 -0.105744,0.386267 -0.0057,0.03361 -0.0112,0.06728 -0.01681,0.100884 0.04556,0.04639 0.09012,0.09353 0.133433,0.141551 0.228068,0.252829 -0.07344,0.647364 -0.114139,0.970553 -0.01877,0.149258 -0.03498,0.2665 -0.05288,0.405839 0.624655,-0.540659 1.502065,-0.925117 2.371745,-0.03839 0.07245,-0.05786 0.144476,-0.116287 0.214849,-0.176195 1.502963,-1.279521 2.599259,-2.890519 3.42082,-4.583959 0.875846,-1.915242 1.623539,-3.886419 2.132556,-5.907646 1.992879,-0.9571 3.906718,-2.050253 5.723744,-3.248979 0.805556,-0.598208 1.597992,-1.229535 2.123327,-2.054049 0.433156,-0.724503 0.731591,-1.493899 0.926541,-2.298005 0.206258,-0.866639 0.347577,-1.743591 0.312205,-2.633063 -0.04466,-0.819129 -0.228104,-1.574689 -0.746099,-2.267134 -0.460378,-0.700292 -0.939916,-1.389854 -1.414143,-2.082632 l -5.133747,2.709869 c 0.04164,-0.345029 0.08146,-0.690415 0.125053,-1.035308 0.206029,-1.544489 0.402599,-3.089832 0.543,-4.640432 0.08656,-0.903763 0.153311,-1.809223 0.218205,-2.714383 2.086376,-0.955873 4.144015,-1.971557 5.952028,-3.294912 0.751403,-0.564753 1.253187,-1.309139 1.73055,-2.063081 0.480154,-0.786322 0.989226,-1.558088 1.482131,-2.33791 0.591044,-0.953449 1.056363,-1.95763 1.438491,-2.991473 0.471369,-1.282631 0.834839,-2.592753 1.096071,-3.922116 0.25272,-1.343243 0.353273,-2.701323 0.297096,-4.061412 -0.03574,-1.106584 -0.43359,-2.14084 -0.993683,-3.114955 -0.482477,-0.831477 -1.104768,-1.553627 -1.94792,-2.106756 -0.702764,-0.411761 -1.520859,-0.531859 -2.34153,-0.584288 -0.08181,-0.0055 -0.162853,-0.0091 -0.244226,-0.01054 z m -4.336451,3.37472 c 0.5322,0.02071 1.058069,0.09705 1.54424,0.311724 0.817145,0.429952 1.383491,1.079506 1.826227,1.826656 0.499352,0.913918 0.85037,1.865728 0.877862,2.89434 0.05294,1.317628 -0.054,2.63237 -0.319756,3.930399 -0.293273,1.312164 -0.681674,2.603116 -1.184196,3.864141 -0.418246,1.003815 -0.890928,1.989445 -1.512344,2.907893 -0.503604,0.776681 -0.997842,1.558234 -1.501433,2.334899 -0.358753,0.514251 -0.751233,1.005242 -1.23371,1.423078 -0.176387,0.07569 -0.352625,0.151928 -0.528733,0.22814 0.06189,-0.894878 0.126774,-1.789243 0.198904,-2.683512 0.05522,-0.770493 0.07401,-1.543233 0.06882,-2.315321 -0.0081,-0.540155 -8.6e-4,-1.080162 -0.0077,-1.62035 -0.01462,-0.644917 -0.03262,-1.290043 -0.08476,-1.933575 -0.08867,-1.283938 -0.180022,-2.569415 -0.143519,-3.856612 0.04613,-1.109422 0.09711,-2.227691 0.356688,-3.316747 0.188259,-0.707142 0.374841,-1.415726 0.634478,-2.105246 0.243557,-0.619604 0.518615,-1.233875 0.923185,-1.785244 0.02755,-0.03574 0.05749,-0.06936 0.0856,-0.104664 z m 1.93785,17.923978 c 0.178485,-0.09195 -0.354193,0.188337 -0.53377,0.278593 -0.03446,0.01731 -0.04688,0.02213 -0.07805,0.03767 0.224952,-0.116083 0.369181,-0.191236 0.61182,-0.316242 z m -9.727009,5.697574 c -0.04983,0.904662 -0.08685,1.809699 -0.153589,2.713632 -0.151703,1.543496 -0.353085,3.08248 -0.558108,4.620855 -0.225274,1.673929 -0.379323,3.354882 -0.543838,5.034224 -0.158265,1.66664 -0.390581,3.325906 -0.695744,4.974743 -0.977354,0.04325 -1.940072,-0.08123 -2.890412,-0.374971 -1.272979,-0.47371 -2.145653,-1.388377 -2.898798,-2.386849 -0.76508,-1.057525 -1.117377,-2.237562 -1.23287,-3.479383 -0.07956,-1.355413 0.216178,-2.678348 0.672244,-3.962026 0.573604,-1.412757 1.425652,-2.698936 2.45903,-3.875433 0.555826,-0.598947 1.214279,-1.100431 1.910989,-1.557854 1.110155,-0.465019 2.212869,-0.942959 3.31004,-1.432111 0.206253,-0.09307 0.414248,-0.182778 0.62105,-0.274827 z m 4.694813,6.506997 c 0.400077,0.516923 0.758155,1.059267 1.104467,1.60604 0.455956,0.6242 0.58866,1.28803 0.606784,2.01866 0.01299,0.849238 -0.158963,1.67975 -0.392777,2.49829 -0.197696,0.771449 -0.530198,1.483734 -1.015501,2.142143 -0.391879,0.489394 -0.874192,0.905892 -1.387292,1.290557 -0.09731,0.03473 -0.194252,0.07045 -0.292064,0.103904 0.387951,-2.077134 0.673825,-4.166562 0.951718,-6.258522 0.154822,-1.132627 0.289403,-2.26674 0.424665,-3.401074 z M 62.87576,86.263574 c -0.05415,0.09691 -0.110714,0.192446 -0.167017,0.288379 0.01982,-0.0027 0.03987,-0.0038 0.05958,-0.0068 0.08229,-0.01268 0.09898,-0.20723 0.107426,-0.281604 z" />
    <path
       id="path2920"
       style="fill:#000000;fill-opacity:1;fill-rule:nonzero;stroke:none;stroke-width:0.407006"
       d="m 66.612976,88.330422 -1.193425,0.463818 c 0.06837,0.240547 0.09158,0.508111 0.0898,0.78081 0.379206,-0.406791 0.752044,-0.817852 1.103625,-1.244628 z" />
    <path
       id="path2922"
       style="fill:#000000;fill-opacity:1;fill-rule:nonzero;stroke:none;stroke-width:0.407006"
       d="m 67.035122,86.819252 -2.431332,1.020245 c 0.164983,0.08439 0.331446,0.206985 0.49768,0.376477 0.438921,0.447509 0.444538,1.220921 0.37347,1.923035 0.0849,-0.144335 0.168358,-0.289603 0.247584,-0.436713 0.481196,-0.94523 0.888536,-1.916455 1.312598,-2.883044 z" />
    <path
       style="fill:#000000;fill-opacity:1;fill-rule:nonzero;stroke:none;stroke-width:0.407006"
       id="path3168"
       d="m 65.49626,79.366294 c -0.185092,0.704716 -0.392307,1.404521 -0.617823,2.099649 -0.159028,0.495572 -0.333417,0.987135 -0.479295,1.486014 -0.138923,0.460222 -0.293146,0.915725 -0.475781,1.36349 -0.155862,0.370687 -0.309729,0.741929 -0.468259,1.111713 -0.163381,0.337598 -0.243146,0.700912 -0.347302,1.055441 -0.08842,0.332717 -0.254872,0.64078 -0.376073,0.963662 -0.113814,0.293931 -0.228566,0.586695 -0.369533,0.871111 -0.1626,0.285829 -0.239137,0.600259 -0.380793,0.893752 -0.180981,0.316689 -0.338204,0.642675 -0.49638,0.968864 -0.17959,0.383743 -0.358461,0.767732 -0.547324,1.147906 -0.198496,0.396404 -0.330477,0.814679 -0.477874,1.227504 -0.14537,0.358274 -0.284814,0.718427 -0.423744,1.078743 -0.15026,0.38122 -0.326204,0.753 -0.517691,1.11876 -0.135917,0.28792 -0.301575,0.55898 -0.491641,0.82029 -0.132589,0.1995 -0.271047,0.39584 -0.418452,0.58676 -0.146978,0.14808 -0.220371,0.31059 -0.286279,0.49537 -0.0438,0.0163 -0.02939,0.19878 -0.06779,0.21027 -0.200963,0.0602 0.08012,-0.0901 -0.08174,0.003 -0.07677,0.0564 -0.08894,0.16619 -0.09971,0.25384 -0.02243,0.0866 -0.05116,0.1716 -0.08273,0.25583 -0.0097,0.0231 -0.01762,0.047 -0.02557,0.0706 0.98597,-0.45024 1.971939,-0.90048 2.957903,-1.35074 0,0 -0.113392,0.0569 -0.113392,0.0569 v 0 c 1.009655,-0.39818 2.019305,-0.79633 3.028956,-1.19448 0.0071,-0.0198 0.01511,-0.04 0.0211,-0.0602 0.02613,-0.075 0.05342,-0.1505 0.09746,-0.21886 0.06254,-0.0484 0.121821,-0.0832 0.151493,-0.15177 0.03488,-0.10112 0.01235,-0.2009 0.09785,-0.28998 0.09961,-0.14061 0.242047,-0.2577 0.321236,-0.41256 0.135707,-0.20175 0.268598,-0.405019 0.399218,-0.609443 0.162491,-0.283556 0.298168,-0.578331 0.444736,-0.868648 0.179708,-0.380012 0.33478,-0.768796 0.490064,-1.157274 0.147384,-0.363373 0.291555,-0.728028 0.41987,-1.09723 0.141845,-0.398473 0.301967,-0.790929 0.499728,-1.170242 0.184909,-0.383117 0.365614,-0.76782 0.55556,-1.148969 0.167089,-0.331347 0.354536,-0.655016 0.491645,-0.997844 0.11526,-0.299963 0.249215,-0.591664 0.387788,-0.883423 0.124565,-0.293872 0.231768,-0.593368 0.348826,-0.889688 0.142983,-0.330589 0.27195,-0.664181 0.356038,-1.011497 0.101517,-0.342332 0.224535,-0.677731 0.377689,-1.004503 0.151037,-0.37111 0.296958,-0.743939 0.441452,-1.117132 0.16801,-0.462467 0.314452,-0.930996 0.461083,-1.399218 0.155308,-0.490238 0.300836,-0.982924 0.452014,-1.474196 0.200542,-0.703609 0.395544,-1.409942 0.651597,-2.099299 0,0 -5.808131,2.467349 -5.808131,2.467349 z" />
    <path
       style="fill:none;stroke:#000000;stroke-width:0.547504px;stroke-linecap:butt;stroke-linejoin:miter;stroke-opacity:1"
       d="m 26.006717,91.062871 c 0.113894,0.292939 0.341488,1.207021 0.545451,1.346777 0.287007,0.196857 0.04733,-0.811928 0.03482,-1.217842 -0.06609,-2.144472 -0.163949,-4.289878 -0.255317,-6.433068 -0.157436,-3.692919 -0.287906,-7.390183 -0.545452,-11.07521 -0.124055,-1.775032 -0.452607,-3.533853 -0.452607,-5.315515 0,-0.705716 0.116054,-1.40411 0.174079,-2.106166 2.776561,0.600242 5.59404,-0.171991 8.402257,-0.171991 0.116722,0 1.873211,0.31976 1.938091,0.186266 0.336413,-0.692224 -0.371105,-2.832511 -0.522239,-3.495931"
       id="path3203" />
    <path
       style="fill:none;stroke:#000000;stroke-width:0.547504px;stroke-linecap:butt;stroke-linejoin:miter;stroke-opacity:1"
       d="m 35.058871,37.277189 c -0.554166,2.18731 -0.570467,4.551933 -0.522241,6.834249 0.101151,4.787535 0.443954,9.628865 0.765953,14.399206 0.129349,1.91633 -0.11356,2.946112 -0.139262,4.627804 -0.0023,0.143901 -0.05124,0.332954 0.03482,0.429816 0.131934,0.148506 0.593965,0.164853 0.533845,-0.04305 -0.08159,-0.282093 -0.270791,-0.496725 -0.406186,-0.745088"
       id="path3205" />
    <path
       style="fill:none;stroke:#000000;stroke-width:0.547504px;stroke-linecap:butt;stroke-linejoin:miter;stroke-opacity:1"
       d="m 25.507685,66.261847 c 0.967111,1.561711 2.153203,2.948853 2.901333,4.685112 0.287246,0.666644 0.06165,1.509192 0.09284,2.263766 0.02684,0.649537 0.05829,1.298798 0.08124,1.948541 0.09653,2.732057 0.269912,5.460734 0.313344,8.195365 0.01247,0.786712 -0.04194,1.557703 -0.116053,2.335397 -0.0687,0.720886 -0.146849,1.384334 -0.127657,1.375447 0.167848,-0.07757 0.156931,-0.421091 0.174078,-0.558783"
       id="path3207" />
    <path
       style="fill:none;stroke:#000000;stroke-width:0.547504px;stroke-linecap:butt;stroke-linejoin:miter;stroke-opacity:1"
       d="m 35.325793,62.780191 c 0.630557,1.776642 1.210671,3.582042 1.891669,5.329927 0.275524,0.707167 1.499778,0.593266 1.230165,1.2035 0.07837,1.502931 0.166675,3.007611 0.208896,4.513189 0.112797,4.023048 -0.331213,8.037631 -0.382976,12.063805 -0.01339,1.04834 0.03264,2.097419 -0.08124,3.137742 -0.03138,0.286584 -0.313343,1.668386 -0.313343,0.716378"
       id="path3209" />
    <path
       style="fill:none;stroke:#000000;stroke-width:0.547504px;stroke-linecap:butt;stroke-linejoin:miter;stroke-opacity:1"
       d="m 28.826808,86.506692 c -0.06902,0.287594 -0.169763,0.566334 -0.207032,0.862793 -0.02889,0.229775 0.311465,2.580697 0.373382,3.039336 0.03125,0.231459 0.148059,0.621794 0.08206,0.856067 -0.01925,0.06834 -0.09738,0.652323 -0.114881,0.64838 -0.0475,-0.01152 -0.06081,-0.122721 -0.139503,-0.146894"
       id="path3215" />
    <path
       style="fill:none;stroke:#000000;stroke-width:0.547504px;stroke-linecap:butt;stroke-linejoin:miter;stroke-opacity:1"
       d="m 28.703514,70.78991 c 1.684109,-0.06838 3.328438,-0.549336 4.989373,-0.845957 0.970961,-0.173372 1.959218,-0.200541 2.93372,-0.359662 0.276282,-0.04513 0.54027,-0.160248 0.816516,-0.197548 0.134297,-0.01841 0.348237,0.02625 0.471856,-0.03039 0.105508,-0.04836 0.193001,-0.207679 0.303632,-0.182352 0.08369,0.01841 0.152671,0.09302 0.229016,0.139527"
       id="path3217" />
    <path
       style="fill:none;stroke:#000000;stroke-width:0.547504px;stroke-linecap:butt;stroke-linejoin:miter;stroke-opacity:1"
       d="m 31.157168,73.861896 c 0.09399,1.242688 0.235238,2.47481 0.254393,3.728242 0.03261,2.13313 -0.04778,4.271627 -0.01227,6.402888 0.01637,0.98836 0.06849,1.974786 0.08206,2.963352 0.01265,0.921524 0.08908,1.832782 0.09848,2.755664 0.003,0.288745 0.0043,0.577578 0.01227,0.866215 0.0023,0.07985 -0.02114,0.294568 0.02463,0.238075 0.101614,-0.125491 -0.04369,-0.708479 -0.06565,-0.911811"
       id="path3219" />
    <path
       style="fill:none;stroke:#000000;stroke-width:0.547504px;stroke-linecap:butt;stroke-linejoin:miter;stroke-opacity:1"
       d="m 35.092044,73.963203 c -0.112742,0.582192 -0.112834,1.192426 -0.11488,1.788155 -0.0026,0.741063 0.05981,1.482167 0.04103,2.223771 -0.05968,2.358103 -0.31227,4.718292 -0.270806,7.081665 0.01506,0.86 0.155126,1.708094 0.217466,2.563173 0.07105,0.974519 0.09027,2.008541 0.09027,2.988677 0,0.115583 -0.06215,-0.22241 -0.118991,-0.31407"
       id="path3221" />
    <path
       style="fill:none;stroke:#000000;stroke-width:0.547504px;stroke-linecap:butt;stroke-linejoin:miter;stroke-opacity:1"
       d="m 35.058871,37.277189 c 0.125946,0.242768 0.198411,0.544167 0.377834,0.728303 0.241677,0.248036 2.480364,0.82241 2.974751,0.957394 0.272779,0.07448 0.548059,0.09654 0.820621,0.162091 0.06918,0.01658 0.158696,0.150786 0.201051,0.08105 0.126002,-0.207402 -0.252537,0.178024 -0.270806,0.187441 0.545656,-0.01358 1.091466,0.0021 1.63714,-0.0051 0.996713,-0.01312 1.991364,-0.143901 2.987059,-0.197548 0.715297,-0.03855 1.430895,-0.0022 2.145922,-0.04052 0.654514,-0.03513 1.27175,-0.278607 1.91615,-0.278607 0.03492,0 0.329218,-0.05332 0.34466,-0.0152 0.05808,0.143442 -0.143409,0.104665 -0.160018,0.10637"
       id="path3223" />
    <path
       style="fill:none;stroke:#000000;stroke-width:0.547504px;stroke-linecap:butt;stroke-linejoin:miter;stroke-opacity:1"
       d="m 35.058871,37.277189 c 0.205272,0.119496 0.408046,0.245818 0.615814,0.358525 0.183116,0.09933 0.499013,-0.10955 0.685219,-0.16209 0.427291,-0.120579 0.899504,-0.129259 1.333507,-0.192506 1.856335,-0.270452 3.714675,-0.495809 5.572016,-0.775029 0.65808,-0.09894 1.315397,-0.169711 1.977695,-0.202613 0.0026,-1.29e-4 0.344666,-0.04393 0.414413,-0.0152 0.02774,0.01128 -0.05745,0.01358 -0.08616,0.02026 0.160017,0.113118 0.313216,0.242549 0.480064,0.339384 0.492979,0.286121 1.055417,0.405927 1.526354,0.754769 0.118544,0.08781 0.390089,0.24532 0.471856,0.379917 0.03959,0.06516 0.04882,0.249647 0.1231,0.278607 0.05099,0.0198 0.516823,0.05385 0.529301,0.192482 0.03251,0.361158 -0.441498,0.479257 -0.668802,0.709189"
       id="path3225" />
    <path
       style="fill:none;stroke:#000000;stroke-width:0.547504px;stroke-linecap:butt;stroke-linejoin:miter;stroke-opacity:1"
       d="m 39.162322,39.393463 c -0.344077,0.87743 -0.309201,0.596797 -0.336452,1.818532 -0.07546,3.382276 0.385062,6.779984 0.443135,10.161511 0.06089,3.546016 -0.177277,7.096085 -0.19695,10.64274 -0.0087,1.587614 0.07752,3.1805 0.03282,4.766686 -0.01209,0.431474 -0.05755,0.865711 -0.135393,1.286664 -0.01506,0.08197 -0.19595,0.630564 -0.180531,0.683843 0.06045,0.208829 0.322761,-0.702033 0.17233,-0.48123 -0.211806,0.310896 -0.342429,0.694204 -0.513644,1.041318"
       id="path3227" />
    <path
       style="fill:none;stroke:#000000;stroke-width:0.547504px;stroke-linecap:butt;stroke-linejoin:miter;stroke-opacity:1"
       d="m 48.033243,38.962891 c 0.144971,0.222529 0.35932,0.397463 0.434918,0.667593 0.07813,0.279212 -0.0016,0.590993 0,0.886476 0.0024,0.464356 0.01525,0.92867 0.01227,1.393026 -0.01265,2.04206 -0.172107,4.131308 -0.08206,6.169854 0.146737,3.321845 0.554304,6.579921 0.746764,9.893026 0.196996,3.391195 0.0458,6.797126 0.07797,10.191912 0.03043,3.211583 0.379571,6.334153 0.566229,9.52833 0.08295,1.41924 -0.247603,2.845912 -0.336456,4.249996 -0.09804,1.549414 -0.104946,3.216008 -0.04514,4.766692 0.01873,0.485712 0.265608,1.962955 0.160018,2.375758"
       id="path3231" />
    <path
       style="fill:none;stroke:#000000;stroke-width:0.547504px;stroke-linecap:butt;stroke-linejoin:miter;stroke-opacity:1"
       d="m 41.148223,84.835525 c 0,0.14459 -0.02463,0.284139 -0.02463,0.430576 0,0.201692 -0.03079,-0.401558 -0.04103,-0.602794 -0.04322,-0.849071 -0.129871,-1.695741 -0.106683,-2.547974 0.69946,-0.224029 0.326259,-0.178443 0.919096,-0.141831 1.218812,0.07529 2.439246,-0.0578 3.655864,-0.131705 0.368484,-0.02303 0.78283,-0.05639 1.148869,0 0.0334,0.0043 0.396307,0.233013 0.196949,0.233013"
       id="path3233" />
    <path
       style="fill:none;stroke:#000000;stroke-width:0.547504px;stroke-linecap:butt;stroke-linejoin:miter;stroke-opacity:1"
       d="m 41.148223,84.835525 c 0.240486,0.797543 0.03112,0.751403 0.697531,0.724395 0.601144,-0.02444 1.197023,-0.192946 1.793055,-0.273557 0.791658,-0.106794 1.585319,-0.114888 2.375697,-0.238065 0.362892,-0.0566 0.72108,-0.151043 1.083219,-0.212751 0.06256,-0.01152 0.188742,0.05801 0.188742,-0.02075 0,-0.0087 -0.105399,0.02303 -0.11488,0.01608 -0.04043,-0.03248 -0.06463,-0.102014 -0.08616,-0.151956"
       id="path3235" />
    <path
       style="fill:none;stroke:#000000;stroke-width:0.547504px;stroke-linecap:butt;stroke-linejoin:miter;stroke-opacity:1"
       d="m 46.896672,82.07481 c 0.565051,0.140679 0.06188,2.674997 0.217466,2.867107 0.05059,0.06236 0.0092,-0.187873 -0.02871,-0.262933"
       id="path3237" />
    <path
       style="fill:none;stroke:#000000;stroke-width:0.547504px;stroke-linecap:butt;stroke-linejoin:miter;stroke-opacity:1"
       d="m 47.41776,76.786348 c 0.137253,-0.06584 0.0947,-0.02325 -0.11488,-0.111443 -0.438974,-0.184657 -0.844047,-0.112813 -1.300683,-0.101254 -0.418534,0.0087 -0.833203,-0.04465 -1.251446,-0.03542 -0.751465,0.0138 -1.500696,0.09484 -2.252605,0.106359 -0.78041,0.0138 -0.384328,0.07203 -1.058601,-0.106359 0.0054,0.162081 0.01024,0.324195 0.01637,0.486287 0.02494,0.655017 0.06532,1.309784 0.07797,1.965442 0.0041,0.211361 0.03363,0.827974 -0.03282,0.633192 1.395749,0.314493 2.858077,0.624445 4.275476,0.344467 0.38141,-0.07529 0.861507,0.01608 1.13656,-0.354603"
       id="path3239" />
    <path
       style="fill:none;stroke:#000000;stroke-width:0.547504px;stroke-linecap:butt;stroke-linejoin:miter;stroke-opacity:1"
       d="m 47.41776,76.786348 c 0.267706,0.833156 0.275533,1.749313 0.151816,2.629043 -0.05247,0.373105 -0.04652,0.191099 -0.114881,0.623055 -0.0041,0.02651 -0.01599,0.09951 0,0.08105 0.329149,-0.379254 -0.424965,-0.455715 -0.541609,-0.506559"
       id="path3241" />
    <path
       style="fill:none;stroke:#000000;stroke-width:0.547504px;stroke-linecap:butt;stroke-linejoin:miter;stroke-opacity:1"
       d="m 47.208508,69.794963 c 0.08239,-0.02302 0.168926,-0.01841 0.25029,-0.04559 0.153303,-0.05111 -0.317152,-0.02579 -0.47596,-0.03039 -0.353188,-0.01152 -0.705686,0.0092 -1.0586,0.01611 -1.00081,0.01843 -1.999818,-0.01382 -2.999369,0.08105 -0.855019,0.08105 -0.535688,0.02947 -1.444293,0.516687 0.06754,1.219963 0.292547,2.504439 0.106683,3.728269 -0.02194,0.144362 0.01227,-0.293812 0.01227,-0.440707 0.207903,0.209291 0.36685,0.533449 0.623708,0.628125 0.376963,0.138836 1.576097,-0.210672 2.051553,-0.248225 0.393273,-0.03108 2.357097,0.11328 2.576749,-0.369769 0.06078,-0.13354 0.03667,-0.361756 0.04923,-0.511622"
       id="path3243" />
    <path
       style="fill:none;stroke:#000000;stroke-width:0.547504px;stroke-linecap:butt;stroke-linejoin:miter;stroke-opacity:1"
       d="m 47.208508,69.794963 c 0.14088,0.14206 0.342838,0.224256 0.422619,0.426433 0.07128,0.18074 -0.01339,0.401796 -0.01637,0.602798 -0.01024,0.688033 -0.0084,1.36955 -0.05334,2.056617 -0.02381,0.363115 -0.116442,0.728625 -0.07385,1.089093 0.0098,0.08358 0.117112,-0.177287 0.06976,-0.238071 -0.190323,-0.244173 -0.437669,-0.408612 -0.656504,-0.612929"
       id="path3245" />
    <path
       style="fill:none;stroke:#000000;stroke-width:0.547504px;stroke-linecap:butt;stroke-linejoin:miter;stroke-opacity:1"
       d="m 41.964742,62.996181 c -0.0883,0.804859 -0.202585,1.615243 -0.155925,2.431452 0.01003,0.174754 0.05996,0.655661 0.127192,0.501491"
       id="path3247" />
    <path
       style="fill:none;stroke:#000000;stroke-width:0.547504px;stroke-linecap:butt;stroke-linejoin:miter;stroke-opacity:1"
       d="m 41.964742,62.996181 c 0.203788,0.0046 0.407535,0.01612 0.611364,0.01612 0.97261,-2.3e-5 1.944455,0 2.917305,0 0.2036,0 0.400235,-0.02072 0.603156,-0.03546 0.08124,-0.0046 0.165709,-0.01611 0.246186,-0.01611 0.02463,0 0.09837,0.0023 0.07385,0 -0.07099,-0.007 -0.129405,-0.01152 -0.196949,0.01611 0.188838,5.06e-4 0.282148,3.300617 -0.08205,2.850977"
       id="path3249" />
    <path
       style="fill:none;stroke:#000000;stroke-width:0.547504px;stroke-linecap:butt;stroke-linejoin:miter;stroke-opacity:1"
       d="m 41.936009,65.929124 c 0.300896,0.177287 0.576726,0.446164 0.902695,0.531883 0.802255,0.210902 1.910895,-0.318057 2.749079,-0.293813 0.182669,0.0046 0.387661,0.144133 0.562125,0.07091 0.09872,-0.04145 0.343732,-0.01152 0.295424,-0.126634 -0.05929,-0.140217 -0.205153,-0.189028 -0.307731,-0.283682"
       id="path3251" />
    <path
       style="fill:none;stroke:#000000;stroke-width:0.547504px;stroke-linecap:butt;stroke-linejoin:miter;stroke-opacity:1"
       d="m 41.886785,59.080494 c -0.227882,0.496448 -0.0992,-0.766776 -0.09027,-1.12455 0.01711,-0.680119 0.02591,-1.365718 0.09027,-2.041428 0.239347,0.09286 0.468889,0.24277 0.718042,0.278606 0.407817,0.05867 1.106119,-0.200587 1.514044,-0.243147 1.055002,-0.110056 2.120211,-0.0723 3.167596,-0.23808 -0.23003,1.052295 -0.05694,2.113962 -0.07797,3.186246 -0.0057,0.292225 -0.02748,0.590941 -0.05334,0.881391 -0.008,0.09026 0.01506,0.332586 -0.03694,0.268487 -0.04185,-0.05157 -0.03585,-0.139528 -0.05745,-0.207679"
       id="path3253" />
    <path
       style="fill:none;stroke:#000000;stroke-width:0.547504px;stroke-linecap:butt;stroke-linejoin:miter;stroke-opacity:1"
       d="m 41.886785,59.080494 c 0.358337,0.307305 0.692336,0.663489 1.075012,0.921937 0.204886,0.138376 1.248691,0.007 1.489427,-0.0046 0.722557,-0.03776 1.440207,-0.04559 2.162335,-0.04559 0.05815,0 0.919453,0.05457 0.939609,0.01612 0.172869,-0.337926 -0.339032,-0.160018 -0.492388,-0.126632"
       id="path3255" />
    <path
       style="fill:none;stroke:#000000;stroke-width:0.547504px;stroke-linecap:butt;stroke-linejoin:miter;stroke-opacity:1"
       d="m 45.776525,51.943109 c 0,0.419929 -0.677294,0.263871 -0.902682,0.268475 -1.142956,0.02302 -2.298345,-0.02026 -3.426137,-0.207679 0,0.346297 0.0017,0.148208 -0.01227,-0.329262 -0.01711,-0.59019 -0.05899,-1.193055 -0.02871,-1.783074 0.0084,-0.163495 0.03831,-0.324207 0.05745,-0.486297 0.64401,-0.117309 0.331922,-0.09117 0.935507,-0.09117 1.033337,0 2.043688,-0.231637 3.073223,-0.273541 0.0147,-5.98e-4 1.296496,-0.04558 0.910889,-0.04558 -0.207321,0.803516 0.149081,1.648862 0.05745,2.497315 -0.0065,0.05988 -0.06489,0.358575 -0.09848,0.455901 -0.02566,0.07442 -0.129628,0.280877 -0.09437,0.212743 0.03965,-0.07662 0.07659,-0.155344 0.114881,-0.233014"
       id="path3257" />
    <path
       style="fill:none;stroke:#000000;stroke-width:0.547504px;stroke-linecap:butt;stroke-linejoin:miter;stroke-opacity:1"
       d="m 46.638177,45.373089 c -0.137663,0.419881 -0.495096,0.303931 -0.824724,0.303931 -1.576193,0 -3.144186,-0.172128 -4.718572,-0.25834 -0.161413,1.095992 0.08224,-2.153094 0.07796,-2.15793 1.142202,-0.08975 2.287346,-0.05237 3.430195,-0.116502 0.699596,-0.03914 1.398863,-0.154033 2.096685,-0.05066 -0.04246,0.773642 -0.202304,1.521201 -0.06155,2.279494 z"
       id="path3259" />
    <path
       style="fill:none;stroke:#000000;stroke-width:0.547504px;stroke-linecap:butt;stroke-linejoin:miter;stroke-opacity:1"
       d="m 49.561793,57.109658 c 3.101981,0.321793 6.221862,0.56143 9.338379,0.757067 0.94263,0.05918 1.882907,0.168077 2.826177,0.213895 0.146385,0.007 1.106859,0.08265 0.959836,-0.0822 -1.154607,-0.567156 -1.544971,-1.669846 -2.33293,-2.806131 -0.07322,-0.105588 -1.190529,-1.35834 -1.179796,-1.530599"
       id="path3261" />
    <path
       style="fill:none;stroke:#000000;stroke-width:0.547504px;stroke-linecap:butt;stroke-linejoin:miter;stroke-opacity:1"
       d="m 49.361828,53.546493 c 0.625634,0.199965 1.258508,0.06774 1.893004,0.139895 1.827608,0.207817 3.659094,0.184032 5.485717,0.362074 0.184789,0.01796 2.761567,0.20616 2.859504,0.123433 0.163328,-0.13796 -0.253924,-0.390967 -0.426593,-0.510203"
       id="path3263" />
    <path
       style="fill:none;stroke:#000000;stroke-width:0.547504px;stroke-linecap:butt;stroke-linejoin:miter;stroke-opacity:1"
       d="m 62.686185,57.998424 c -0.102973,2.044759 0.469842,4.054338 0.653217,6.097671 0.298801,3.329466 0.38308,6.627897 0.473251,9.973572 0.07348,2.726253 0.269888,5.448824 0.399934,8.171439 0.07891,1.65209 0.259952,3.298889 0.259952,4.95388 0,0.204451 0.181461,2.814406 0.286616,2.756717 0.19565,-0.107337 -0.150533,-0.616938 -0.23329,-0.740626"
       id="path3265" />
    <path
       style="fill:none;stroke:#000000;stroke-width:0.547504px;stroke-linecap:butt;stroke-linejoin:miter;stroke-opacity:1"
       d="m 51.041537,62.433836 c 0.96715,0.130318 0.483577,0.107066 1.426418,0.07414 2.001603,-0.06976 3.991196,-0.08818 5.992296,-0.04122 0.442067,0.0092 0.894051,0.114432 1.326435,0 0.03967,-0.01152 -0.284722,-0.07368 -0.286618,-0.07414"
       id="path3267" />
    <path
       style="fill:none;stroke:#000000;stroke-width:0.547504px;stroke-linecap:butt;stroke-linejoin:miter;stroke-opacity:1"
       d="m 52.148011,68.153013 c 0.588788,-0.0092 1.177607,-0.01382 1.766361,-0.02464 1.304691,-0.0251 2.599656,-0.09878 3.905989,-0.09878 1.012776,0 3.218356,0.160248 2.506233,-0.123411"
       id="path3269" />
    <path
       style="fill:none;stroke:#000000;stroke-width:0.547504px;stroke-linecap:butt;stroke-linejoin:miter;stroke-opacity:1"
       d="m 52.794566,74.966646 c 2.075269,0.347874 4.207665,-0.02878 6.298908,-0.0822 0.593425,-0.01612 1.324164,0.153571 1.913001,0.0092"
       id="path3271" />
    <path
       style="fill:none;stroke:#000000;stroke-width:0.547504px;stroke-linecap:butt;stroke-linejoin:miter;stroke-opacity:1"
       d="m 53.794393,82.487971 c 1.919383,0.708273 3.942692,0.47778 5.918975,0.608953 0.314257,0.02075 0.806138,0.02673 0.866515,0.205603"
       id="path3273" />
    <path
       style="fill:none;stroke:#000000;stroke-width:0.547504px;stroke-linecap:butt;stroke-linejoin:miter;stroke-opacity:1"
       d="m 62.686185,57.998424 c -0.216166,-1.800531 -0.02481,-3.607561 -0.119975,-5.414729 -0.0049,-0.09203 0.03026,-0.68683 -0.01998,-0.806447 -0.177871,-0.423499 -0.212973,0.367934 -0.13331,-0.222184"
       id="path3275" />
    <path
       style="fill:none;stroke:#000000;stroke-width:0.547504px;stroke-linecap:butt;stroke-linejoin:miter;stroke-opacity:1"
       d="m 59.17346,53.661694 c 0.416988,-0.909932 0.326294,-1.976769 0.50658,-2.962446 0.918662,0.472715 1.863785,0.215668 2.806177,0.386764 0.208563,0.03787 0.361052,0.171093 0.553238,0.230413 0.04064,0.01243 0.147036,-0.09606 0.106639,-0.08228 -0.249913,0.08521 -0.488786,0.213941 -0.733179,0.320931 1.945431,-0.124539 0.148003,0.04128 1.353079,-0.164578 1.018651,-0.174017 1.98984,-0.477283 3.026143,-0.477283 0.391965,0 0.759204,-4.59e-4 1.146467,0.08228 0.125742,0.02687 0.360768,0.213758 0.379934,0.05761 0.01098,-0.09014 -0.01786,-0.181041 -0.02666,-0.271558 0.163346,-0.655903 -0.366956,-3.982358 0.02666,-4.098062 0.377713,-0.08228 0.754522,-0.171208 1.133136,-0.246871 0.852151,-0.170287 1.65226,-0.09475 2.506234,-0.04114 0.279376,0.0175 1.669345,-0.0557 1.146468,-0.139896"
       id="path3277" />
    <path
       style="fill:none;stroke:#000000;stroke-width:0.547504px;stroke-linecap:butt;stroke-linejoin:miter;stroke-opacity:1"
       d="m 73.104376,46.255569 c 0.168908,1.221784 0.133311,2.461452 0.133311,3.694836 0,0.07384 -0.06686,0.894135 0,0.921652 0.06327,0.02602 -0.145883,-1.19375 -0.193301,-1.505915 -0.0039,-0.02557 0.0024,0.05926 0.01997,0.07407 0.02889,0.02468 0.257551,0.0012 0.273281,0 1.039766,-0.07405 2.073833,-0.16338 3.079471,-0.370308 0.193306,-0.03978 0.579897,0.01243 0.579897,-0.09053 0,-0.05215 0.119977,0.101557 0.119977,0.04941 0,-0.428166 -0.01339,-1.042722 -0.01339,-1.530596 0,-0.192 0,-0.768041 0,-0.576032 0,0.586058 3.435554,-0.368569 3.859332,-0.106968 0.134817,0.08321 0.447554,3.67265 0.513241,4.122744 0.228756,1.567387 0.434854,3.182878 0.513248,4.772836 0.05085,1.031407 -0.01339,2.063129 0.05999,3.094109 0.079,1.110389 0.328332,2.189283 0.486582,3.283372 0.07741,0.535129 0.05814,1.079353 0.146646,1.612893 0.09786,0.589835 0.34398,1.114789 0.426592,1.711646 0.108334,0.782594 -0.01994,1.632694 -0.04665,2.419318 -0.03911,1.151466 -0.05997,2.312348 -0.05997,3.464435 0,1.48428 0.497706,2.876051 0.553237,4.361367 0.05475,1.464487 -0.06435,2.942871 -0.04664,4.410761 0.03071,2.551223 0.140899,5.090637 0.01339,7.636537 -0.03893,0.776543 -0.0195,1.480557 0.03331,2.246529 0.0064,0.09278 0.07618,1.320594 0.04664,1.324875 -0.209131,0.03042 -0.375461,-0.236316 -0.559904,-0.362078"
       id="path3279" />
    <path
       style="fill:none;stroke:#000000;stroke-width:0.547504px;stroke-linecap:butt;stroke-linejoin:miter;stroke-opacity:1"
       d="m 68.291869,50.781544 c -0.858401,-0.876621 -1.776091,-1.589341 -2.706188,-2.337053 -0.310246,-0.249406 -0.48358,-0.626494 -0.826526,-0.814672"
       id="path3281" />
    <path
       style="fill:none;stroke:#000000;stroke-width:0.547504px;stroke-linecap:butt;stroke-linejoin:miter;stroke-opacity:1"
       d="m 59.68004,50.699248 c 0.325013,-0.146987 0.712422,-0.319813 1.046486,-0.477281 1.133587,-0.534358 2.328395,-0.85352 3.479392,-1.333106 0.01046,-0.0043 1.37837,-0.611773 1.253118,-0.732385 -0.215494,-0.207518 -0.466589,-0.351104 -0.699881,-0.526657"
       id="path3283" />
    <path
       style="fill:none;stroke:#000000;stroke-width:0.547504px;stroke-linecap:butt;stroke-linejoin:miter;stroke-opacity:1"
       d="m 68.325207,46.658793 c -0.750759,-0.160019 -1.24551,-0.786437 -1.853011,-1.283726 -0.184028,-0.150648 -0.428937,-0.224417 -0.599897,-0.386763 -0.06035,-0.05733 0.151518,0.01819 0.226628,0.03291 -0.678259,0.8273 -0.557628,1.551727 -0.759871,2.600385 -0.0026,0.01335 -0.193936,0.713966 -0.139968,0.740614 0.01024,0.0051 0.340269,-0.0997 0.293281,-0.156358 -0.207355,-0.250044 -0.488807,-0.384027 -0.733208,-0.576037"
       id="path3285" />
    <path
       style="fill:none;stroke:#000000;stroke-width:0.547504px;stroke-linecap:butt;stroke-linejoin:miter;stroke-opacity:1"
       d="M 73.104376,46.255569 C 72.326891,45.866977 71.543615,45.363396 70.944753,44.618 70.681133,44.289875 70.379793,43.79609 70.20488,43.688117"
       id="path3287" />
    <path
       style="fill:none;stroke:#000000;stroke-width:0.547504px;stroke-linecap:butt;stroke-linejoin:miter;stroke-opacity:1"
       d="m 66.098927,45.021205 c 1.273835,-0.339486 2.546624,-0.653581 3.839334,-0.864035 0.09414,-0.01543 0.938874,-0.241583 0.926506,-0.2551 -0.170507,-0.18622 -0.439924,-0.142635 -0.659887,-0.213941"
       id="path3289" />
    <path
       style="fill:none;stroke:#000000;stroke-width:0.547504px;stroke-linecap:butt;stroke-linejoin:miter;stroke-opacity:1"
       d="M 76.70375,49.102818 C 76.15008,48.72471 76.1665,48.281535 75.91056,47.728568 75.85319,47.604629 75.403035,47.362959 75.677262,47.193681"
       id="path3293" />
    <path
       style="fill:none;stroke:#000000;stroke-width:0.547504px;stroke-linecap:butt;stroke-linejoin:miter;stroke-opacity:1"
       d="m 73.361188,47.509707 c 0.07054,-0.02332 0.139431,-0.05648 0.211632,-0.06995 0.287302,-0.0536 0.583982,-0.02773 0.873178,-0.04734 0.415875,-0.0282 0.827583,-0.08579 1.231264,-0.198768"
       id="path3297" />
    <path
       style="fill:none;stroke:#000000;stroke-width:0.547504px;stroke-linecap:butt;stroke-linejoin:miter;stroke-opacity:1"
       d="m 77.053881,46.960417 c -0.02057,-0.072 -0.04149,-0.143832 -0.06165,-0.216013 -0.117447,-0.420502 -0.330088,-0.819565 -0.566567,-1.152064 -0.0663,-0.09322 -0.199653,-0.252415 -0.213295,-0.03912"
       id="path3301" />
    <path
       style="fill:none;stroke:#000000;stroke-width:0.547504px;stroke-linecap:butt;stroke-linejoin:miter;stroke-opacity:1"
       d="m 75.677262,47.193681 c -0.238533,-0.180442 -0.205538,-0.145905 -0.141456,-0.371096 0.04523,-0.158845 0.06977,-0.332616 0.119975,-0.487573 0.08795,-0.27147 0.217289,-0.518273 0.313283,-0.785871 0.0051,-0.01405 0.09578,-0.254505 0.111643,-0.238641 0.06127,0.0612 0.08777,0.161815 0.131655,0.242724"
       id="path3303" />
    <path
       style="fill:none;stroke:#000000;stroke-width:0.547504px;stroke-linecap:butt;stroke-linejoin:miter;stroke-opacity:1"
       d="m 76.212367,45.553224 c 0.06165,-0.111092 0.111011,-0.234341 0.184957,-0.333242 0.0847,-0.113278 0.758127,-0.186934 0.888181,-0.211892 0.460698,-0.08849 0.922881,-0.157761 1.384756,-0.234529 0.348585,-0.05793 0.859899,-0.159512 1.151471,-0.170748"
       id="path3305" />
    <path
       style="fill:none;stroke:#000000;stroke-width:0.547504px;stroke-linecap:butt;stroke-linejoin:miter;stroke-opacity:1"
       d="m 80.831559,46.625087 c -0.447434,-0.389512 -0.758577,-0.985366 -1.064818,-1.538828 -0.07074,-0.127876 -0.10692,-0.29904 -0.181628,-0.417625 -0.01321,-0.02072 -0.06736,-0.05019 -0.06499,-0.08228 0.0024,-0.0332 0.04813,0.03483 0.07498,0.03705 0.07559,0.0062 0.15109,-0.01382 0.226624,-0.02049"
       id="path3307" />
    <path
       style="fill:none;stroke:#000000;stroke-width:0.547504px;stroke-linecap:butt;stroke-linejoin:miter;stroke-opacity:1"
       d="m 64.827107,55.082955 c 0.189659,1.330401 0.03582,0.114294 0.150327,1.47317 0.0097,0.114316 0.0087,0.431265 0.06107,0.336391 0.189535,-0.34319 -0.209235,-1.609779 -0.211404,-1.809561 -0.0024,-0.228745 0.07882,-0.452665 0.164424,-0.655389 0.03079,-0.07288 1.07393,-0.17153 1.310715,-0.214586 0.656017,-0.119311 1.518625,-0.418754 1.536217,-0.231995 0.04216,0.447592 0.05796,3.400388 -0.126838,3.613317 -0.01786,0.02072 -0.280087,-0.113279 -0.40402,-0.127554 -0.03848,-0.0046 -2.744625,-0.27862 -2.081173,-0.585774"
       id="path3309" />
    <path
       style="fill:none;stroke:#000000;stroke-width:0.547504px;stroke-linecap:butt;stroke-linejoin:miter;stroke-opacity:1"
       d="m 71.62028,54.253569 c -0.0282,0.243595 -0.04965,0.488529 -0.08457,0.730783 -0.08074,0.560371 -0.403887,2.220734 -0.286573,1.670367 0.159013,-0.746022 0.06543,-1.718541 0.371136,-2.40115 0.389633,-0.870017 1.558794,-0.636035 2.222107,-0.742387 0.294772,-0.04727 0.665854,-0.162873 0.667104,-0.145006 0.0024,0.03764 -0.06025,0.574807 -0.06576,0.632193 -0.08038,0.835768 -0.173575,1.672487 -0.230198,2.511344 -0.0095,0.140862 0.0945,0.44088 -0.0188,0.423395 -0.369646,-0.057 -2.775921,0.0055 -2.269091,-0.458191"
       id="path3311" />
    <path
       style="fill:none;stroke:#000000;stroke-width:0.547504px;stroke-linecap:butt;stroke-linejoin:miter;stroke-opacity:1"
       d="m 76.989978,56.469126 c 0,0.08132 -0.02643,0.301093 -0.06107,0.231996 -0.431113,-0.859789 0.23242,-2.245407 0.05168,-3.178339 0.628613,-0.740462 0.32913,-0.611785 1.19327,-0.748182 0.250331,-0.03951 0.504139,-0.03039 0.756363,-0.04059 0.08921,-0.0037 0.292729,-0.106098 0.26778,0 -0.211571,0.899687 -0.12654,1.582678 -0.04698,2.528751 0.01227,0.146135 0.108816,1.531004 0,1.554369 -0.442529,0.09502 -1.713355,-0.245643 -2.161043,-0.347993 z"
       id="path3313" />
    <path
       style="fill:none;stroke:#000000;stroke-width:0.547504px;stroke-linecap:butt;stroke-linejoin:miter;stroke-opacity:1"
       d="m 65.386155,64.90215 c -0.0877,-0.974478 -0.20433,-1.944558 -0.263081,-2.923134 0.177871,-0.202613 2.705557,-0.80304 2.936191,-0.597387 0.106683,0.09509 -0.05879,0.318886 -0.06576,0.481391 -0.01804,0.419939 0.02728,1.011317 0.05168,1.386174 0.03597,0.552835 0.286774,1.991298 0.0095,2.615739 -0.08808,0.198238 -0.951992,-0.405803 -0.967769,-0.411789 -0.688212,-0.260681 -1.067881,-0.128476 -1.700642,-0.550994 z"
       id="path3315" />
    <path
       style="fill:none;stroke:#000000;stroke-width:0.547504px;stroke-linecap:butt;stroke-linejoin:miter;stroke-opacity:1"
       d="m 71.648465,62.350212 c -0.17192,0.96817 -0.279153,1.936178 -0.07046,2.899927"
       id="path3317" />
    <path
       style="fill:none;stroke:#000000;stroke-width:0.547504px;stroke-linecap:butt;stroke-linejoin:miter;stroke-opacity:1"
       d="m 71.648465,62.350212 c 0.179824,-0.73666 -0.02897,-0.360835 0.826831,-0.469786 0.50308,-0.06401 1.238074,-0.441697 1.653664,-0.464008 0.02661,-0.0012 -0.04064,0.04536 -0.05168,0.07552 -0.04275,0.116504 -0.08224,0.235768 -0.108054,0.359593 -0.113801,0.545928 -0.12576,1.11686 -0.18321,1.676165 -0.0671,0.653267 -0.164946,1.301768 -0.263082,1.948773 -0.05671,0.37389 -0.109355,0.710574 -0.126838,0.701778 -0.338614,-0.170379 0.257261,-0.14229 -0.371135,-0.284188 -0.252267,-0.0571 -1.662483,0.0845 -1.771108,-0.394405 -0.03439,-0.15173 0.222648,-0.154493 0.324151,-0.2494"
       id="path3319" />
    <path
       style="fill:none;stroke:#000000;stroke-width:0.547504px;stroke-linecap:butt;stroke-linejoin:miter;stroke-opacity:1"
       d="m 77.15441,62.002225 c 0.864469,-0.154493 1.732289,-0.265148 2.593245,-0.452405 0.243187,-0.05295 0.366913,-0.105914 0.371136,-0.08127 0.01841,0.107294 -0.04542,0.212284 -0.06576,0.319001 -0.2442,1.279756 -0.160167,2.495598 -0.20201,3.793129 -0.0074,0.231693 0.07541,0.544731 -0.07046,0.690175 -0.08519,0.08496 -0.813351,-0.15127 -1.042933,-0.185575 -0.169483,-0.02532 -1.916078,-0.378427 -1.930839,-0.394383 -0.06831,-0.07368 -0.02579,-0.223105 -0.05168,-0.330605 -0.268686,-1.115755 -0.772003,-2.589813 -0.230198,-3.688714"
       id="path3321" />
    <path
       style="fill:none;stroke:#000000;stroke-width:0.547504px;stroke-linecap:butt;stroke-linejoin:miter;stroke-opacity:1"
       d="M 65.752585,73.068389 C 65.606628,72.347477 65.553047,71.6078 65.592866,70.86444 c 0.817385,-0.61233 1.495745,-0.47955 2.311368,-0.672792 0.03844,-0.0092 0.09999,-0.08634 0.112759,-0.04052 0.0041,0.01611 -0.02407,0.477637 -0.01413,0.585782 0.03179,0.345018 0.06526,0.690129 0.112741,1.032385 0.04444,0.320404 0.413723,1.637137 0.24429,2.041558 -0.07852,0.187418 -1.821623,-0.270396 -2.090567,-0.371196 -0.06911,-0.02602 0.119771,-0.103839 0.187916,-0.13331"
       id="path3323" />
    <path
       style="fill:none;stroke:#000000;stroke-width:0.547504px;stroke-linecap:butt;stroke-linejoin:miter;stroke-opacity:1"
       d="m 71.220955,73.410575 c -0.07666,-0.733506 -0.281052,-1.446521 -0.178522,-2.198147 0.05011,-0.191332 0.01339,-0.46601 0.150328,-0.574179 0.115792,-0.09141 1.580434,-0.17153 1.893256,-0.243596 0.151276,-0.03477 0.301563,-0.07644 0.450997,-0.121798 0.04808,-0.01382 0.10679,-0.10246 0.140937,-0.05803 0.03443,0.04466 -0.0369,0.114891 -0.05168,0.174064 -0.03849,0.153801 -0.08927,0.304702 -0.108055,0.463984 -0.03521,0.298509 0.01934,0.699269 0.07985,0.980188 0.07997,0.371243 0.792424,1.839153 0.469791,2.151754 -0.202819,0.196397 -2.050375,-0.04052 -2.26439,-0.127554 -0.216983,-0.08818 -0.388361,-0.297727 -0.58254,-0.446602 z"
       id="path3325" />
    <path
       style="fill:none;stroke:#000000;stroke-width:0.547504px;stroke-linecap:butt;stroke-linejoin:miter;stroke-opacity:1"
       d="m 78.051717,73.468573 c -0.376404,-0.638922 -0.261767,-1.549854 -0.159738,-2.285155 0.191048,-0.204916 0.343987,-0.482681 0.573146,-0.614771 0.270355,-0.155874 0.597941,-0.01842 0.892603,-0.07552 0.144098,-0.02786 0.279121,-0.170149 0.422812,-0.139296 0.292574,0.06286 0.863426,1.987292 0.699987,2.430163 -0.507883,1.376182 -1.512031,1.11557 -2.42881,0.684373 z"
       id="path3327" />
    <path
       style="fill:none;stroke:#000000;stroke-width:0.547504px;stroke-linecap:butt;stroke-linejoin:miter;stroke-opacity:1"
       d="m 69.623668,79.343254 c -0.248662,0.657939 -2.719658,0.470175 -3.265044,0.840988 -0.230551,-0.939298 -0.31653,-1.939478 -0.394624,-2.91153 0.250555,-0.0716 0.49774,-0.164396 0.751663,-0.214588 0.655157,-0.129402 1.338789,-0.156334 2.001308,-0.249396 0.515679,-0.07257 0.818827,-0.07464 0.80804,-0.02901 -0.02773,0.117191 -0.18055,0.133313 -0.258385,0.133313 -0.216176,1.102466 0.291973,2.008476 0.450999,3.039227"
       id="path3329" />
    <path
       style="fill:none;stroke:#000000;stroke-width:0.547504px;stroke-linecap:butt;stroke-linejoin:miter;stroke-opacity:1"
       d="m 73.494709,75.475414 c -0.252568,0.695541 -1.788785,0.267539 -2.245593,0.516175 -0.122059,0.258358 -0.07716,-0.330692 -0.07046,-0.835177 0.0077,-0.582097 0.06127,-1.162706 0.04228,-1.745749 0.706753,-0.231111 1.430359,-0.381231 2.161036,-0.417615 0.112667,-0.0043 0.375093,-0.131923 0.33825,0 -0.0217,0.07757 -0.09709,0.112128 -0.145641,0.168306 -0.03074,0.53686 0.391917,1.308199 0.225505,1.826861 -0.0613,0.19111 -0.203576,0.324803 -0.305363,0.487199 z"
       id="path3331" />
    <path
       style="fill:none;stroke:#000000;stroke-width:0.547504px;stroke-linecap:butt;stroke-linejoin:miter;stroke-opacity:1"
       d="m 78.140967,79.650653 c 0,0.802834 -0.0077,-2.183778 0.06107,-2.244563 0.0282,-0.241661 -0.05042,-0.546941 0.08457,-0.724971 0.106101,-0.139984 0.310062,0 0.465094,0 0.122152,0 0.24429,0 0.366435,0 0.289798,0 0.909998,-0.125013 1.202665,0.01847 0.09199,0.04465 0.01901,0.243573 0.0282,0.365392 0.08521,1.130907 0.164425,2.242976 0.164425,3.381336 0,0.04096 0.01871,0.127556 -0.01414,0.121808 -0.06032,-0.01152 -0.02191,-0.163243 -0.07046,-0.20884 -0.153415,-0.143895 -0.54074,-0.07388 -0.704685,-0.06953 -0.341435,0.0087 -0.682709,0.02596 -1.024145,0.03476 -0.05181,0.0011 -0.643139,0.113052 -0.371132,-0.116039"
       id="path3333" />
    <path
       style="fill:none;stroke:#000000;stroke-width:0.547504px;stroke-linecap:butt;stroke-linejoin:miter;stroke-opacity:1"
       d="m 67.035122,86.819252 c -0.298938,-0.676615 -0.07158,-0.120418 -0.380529,-1.809565 0.895449,-0.526799 0.438122,-0.348846 1.306017,-0.550994 0.07017,-0.01608 1.426523,-0.326824 1.456352,-0.289995 0.193823,0.239293 0.226109,2.576439 0.211406,2.923145 -0.01046,0.245843 -0.08808,0.707577 -0.140936,0.707577 -0.112444,0 -0.420733,-0.119961 -0.559051,-0.145057 -0.444196,-0.08018 -0.892244,-0.131238 -1.338904,-0.185569 -0.443432,-0.05389 -0.884201,-0.13377 -0.798643,-0.20883 0.343115,-0.301228 0.270583,0.219183 0.244291,-0.440777 z"
       id="path3335" />
    <path
       style="fill:none;stroke:#000000;stroke-width:0.547504px;stroke-linecap:butt;stroke-linejoin:miter;stroke-opacity:1"
       d="m 72.733682,87.231109 c 0,0.602544 -0.207033,-3.011415 -0.117446,-2.575146 0.793323,-0.563128 1.641846,-0.256175 2.494584,-0.3132 0.17404,-0.01152 0.538448,0.115583 0.516771,-0.09854 -0.02425,-0.239585 -0.251274,0.542162 -0.239593,0.759802 0.0329,0.613027 0.406775,2.689512 0.173817,3.155125 -0.0071,0.0138 -0.698916,-0.536393 -0.859718,-0.568377 -0.44341,-0.08822 -0.974659,0.04117 -1.404673,-0.08126 -0.19716,-0.05617 -0.43624,-0.08376 -0.563748,-0.278381 -0.105076,-0.160245 0.322588,0.104295 0.483883,0.156562"
       id="path3337" />
    <path
       style="fill:none;stroke:#000000;stroke-width:0.547504px;stroke-linecap:butt;stroke-linejoin:miter;stroke-opacity:1"
       d="m 78.949011,84.708154 c 0.01265,0.985025 -0.07518,1.957523 -0.07518,2.940549"
       id="path3339" />
    <path
       style="fill:none;stroke:#000000;stroke-width:0.547504px;stroke-linecap:butt;stroke-linejoin:miter;stroke-opacity:1"
       d="m 78.949011,84.708154 c 0.08377,-0.84717 0.542397,-0.539151 1.052331,-0.562596 0.09311,-0.0043 0.983648,-0.176368 1.094612,-0.07529 0.0906,0.08246 -0.0065,0.278642 0,0.417593 0.05114,1.091395 0.390558,2.19976 0.225497,3.300128 -0.02756,0.183505 -0.04203,0.296144 -0.206705,0.330605 -0.142313,0.02966 -0.276048,-0.107772 -0.418114,-0.139288 -0.444869,-0.09854 -1.360597,0.03618 -1.766415,-0.255209 -0.04911,-0.0352 0.01506,-0.157257 -0.02347,-0.208829 -0.0255,-0.03411 -0.02194,0.08887 -0.03287,0.133313"
       id="path3341" />
    <path
       style="fill:none;stroke:#000000;stroke-width:0.547504px;stroke-linecap:butt;stroke-linejoin:miter;stroke-opacity:1"
       d="m 83.375531,71.693313 c 0.05799,-0.09785 0.102919,-0.209981 0.173965,-0.293514 1.420109,-1.671675 3.113606,-2.917286 4.804354,-4.116481 1.618339,-1.147827 3.265434,-2.230635 4.865243,-3.418455 0.345203,-0.256307 0.937968,-0.564095 0.81184,-0.78393 0.714829,0.727451 1.593206,1.150107 2.360135,1.804088 2.149756,1.833167 4.265612,3.783551 6.323652,5.77022 0.35714,0.344765 0.70479,0.705694 1.0438,1.077443 0.0252,0.02763 0.26459,0.355839 0.36532,0.404489 0.0305,0.01382 0.0649,-0.09855 0.0986,-0.110976 0.0302,-0.01152 0.11832,0.04167 0.087,0.04651 -0.0243,0.0046 -0.0483,-0.0092 -0.0725,-0.01382"
       id="path3345" />
    <path
       style="fill:none;stroke:#000000;stroke-width:0.547504px;stroke-linecap:butt;stroke-linejoin:miter;stroke-opacity:1"
       d="m 104.23692,72.058891 c 0.16575,1.336074 0.14027,2.690705 0.18557,4.037414 0.055,1.635045 0.0376,3.275358 0.029,4.911141 -0.005,0.97289 0.0629,1.949006 0.029,2.920906 -0.0424,1.213116 -0.18792,2.420996 -0.17397,3.636817 0.0115,1.00823 0.0828,2.011973 0.0986,3.021127 0.004,0.295557 0.0261,0.588584 0.0261,0.884152 0,0.105925 -0.0154,0.204918 -0.003,0.307833 0.003,0.02347 -4.9e-4,0.09528 0,0.07159 0.004,-0.15565 -0.0128,-0.229091 -0.10439,-0.336483"
       id="path3347" />
    <path
       style="fill:none;stroke:#000000;stroke-width:0.547504px;stroke-linecap:butt;stroke-linejoin:miter;stroke-opacity:1"
       d="m 85.837146,68.826264 c -0.188119,-0.08197 -0.06518,-0.460162 -0.0145,-0.612123 0.312576,-0.937178 -0.06818,-1.988143 0.127582,-2.945951 0.412722,-0.596627 0.171046,-0.467369 0.701663,-0.551246 0.196075,-0.03108 0.392469,-0.05894 0.588583,-0.08956 0.06554,-0.0092 0.142144,-0.07045 0.197161,-0.0251 0.01246,0.0092 0.04613,0.418512 0.05509,0.508283 0.01046,0.104762 0.02016,0.209521 0.02319,0.314995 0.01339,0.463869 0.002,0.935314 -0.0087,1.399621 -0.0023,0.09601 -0.09911,0.668647 0.02609,0.694411 0.08734,0.01842 0.09879,-0.183965 0.130465,-0.286353"
       id="path3349" />
    <path
       style="fill:none;stroke:#000000;stroke-width:0.547504px;stroke-linecap:butt;stroke-linejoin:miter;stroke-opacity:1"
       d="m 98.562743,66.839595 c 0.668449,-0.266275 1.36734,-0.0092 2.049897,0.01152 0.2043,0.007 2.26488,-0.112359 2.37463,0.03223 0.11527,0.15173 -0.0975,1.346711 -0.12468,1.635849 -0.0304,0.32409 -0.0428,0.65085 -0.0812,0.973627 -0.0358,0.301318 -0.15551,0.602475 -0.15077,0.912796 0.005,0.356323 0.20556,0.442042 0.21456,-0.146665"
       id="path3351" />
    <path
       style="fill:none;stroke:#000000;stroke-width:0.547504px;stroke-linecap:butt;stroke-linejoin:miter;stroke-opacity:1"
       d="m 87.72011,75.104469 c -0.19052,0.06194 -0.394353,0.07967 -0.571568,0.186266 -0.592091,0.356023 -0.844746,1.041082 -1.022802,1.82486 -0.272106,1.197744 0.310211,1.878769 1.293546,1.675883 0.671763,-0.138604 1.38796,-0.677897 1.774866,-1.377957 0.468479,-0.847659 0.05191,-2.16766 -0.752063,-2.457972 -0.168126,-0.06079 -0.337194,-0.171071 -0.511401,-0.148968 -0.472681,0.06009 -0.569142,0.202383 -0.842306,0.484154"
       id="path3355" />
    <path
       style="fill:none;stroke:#000000;stroke-width:0.547504px;stroke-linecap:butt;stroke-linejoin:miter;stroke-opacity:1"
       d="m 93.796771,75.067216 c -0.457539,0.689644 -1.386681,1.654013 -1.113055,2.718661 0.08924,0.347183 0.206701,0.607671 0.511401,0.74483 0.563331,0.253611 1.158396,0.06171 1.654537,-0.297936 0.216345,-0.156791 0.449027,-0.312419 0.601648,-0.55861 0.188463,-0.304042 0.295238,-0.678386 0.391073,-1.042789 0.04665,-0.177519 0.03587,-0.372149 0.03007,-0.55862 -0.02997,-0.963977 -0.850287,-1.379519 -1.534204,-1.228986 -0.707149,0.155643 -0.645294,0.178898 -1.052888,0.633121"
       id="path3357" />
    <path
       style="fill:none;stroke:#000000;stroke-width:0.547504px;stroke-linecap:butt;stroke-linejoin:miter;stroke-opacity:1"
       d="m 100.65557,75.253412 c -0.705277,0.840797 -0.770147,0.728994 -1.113047,1.638655 -0.345531,0.916646 0.12085,1.595466 0.782137,1.936577 0.0966,0.04976 0.19618,0.115811 0.30083,0.111661 0.67602,-0.02596 1.01786,-0.31181 1.44395,-0.931052 0.35801,-0.520281 0.62696,-1.581028 0.30083,-2.197273 -0.3021,-0.57084 -0.9236,-0.780636 -1.44396,-0.744833 -0.49758,0.03431 -0.87799,0.335255 -1.293547,0.633097"
       id="path3359" />
    <path
       style="fill:none;stroke:#000000;stroke-width:0.547504px;stroke-linecap:butt;stroke-linejoin:miter;stroke-opacity:1"
       d="m 86.727391,82.590093 c -0.110304,0.335157 -0.249879,0.657777 -0.330908,1.005514 -0.06458,0.277089 -0.214373,1.280006 -0.150421,1.675883 0.01581,0.0981 0.0655,0.187188 0.120329,0.260705 0.235133,0.315341 0.659575,0.424449 0.962638,0.484125 0.198059,0.03889 0.40343,0.03781 0.601648,0 0.87021,-0.165764 1.4921,-0.459333 1.955358,-1.415177 0.111124,-0.229319 0.167494,-0.493229 0.240663,-0.744841 0.0173,-0.05964 0.03641,-0.123405 0.03007,-0.186265 -0.07043,-0.697604 -0.664367,-1.180339 -1.173214,-1.340704 -0.291691,-0.09191 -0.602617,-0.06953 -0.902477,-0.03726 -0.167456,0.01847 -0.321225,0.122721 -0.481317,0.186265 -0.159311,0.06312 -0.401639,0.145057 -0.511401,0.33519 -0.06517,0.112823 -0.100278,0.248266 -0.150421,0.37242"
       id="path3361" />
    <path
       style="fill:none;stroke:#000000;stroke-width:0.547504px;stroke-linecap:butt;stroke-linejoin:miter;stroke-opacity:1"
       d="m 93.255284,82.552829 c -0.770276,1.126997 -0.632958,0.746406 -1.082969,2.122798 -0.08432,0.257914 -0.129795,0.579078 -0.09024,0.856568 0.01024,0.07138 0.05113,0.13239 0.09024,0.186265 0.142294,0.195705 0.276728,0.408055 0.451237,0.558642 0.933421,0.805387 2.166285,0.258011 2.948081,-0.558642 0.125704,-0.131238 0.202148,-0.321251 0.300823,-0.484126 0.259309,-0.428023 0.427094,-0.766384 0.481323,-1.303472 0.151294,-1.498439 -1.357009,-2.090347 -2.286271,-1.787609 -0.191013,0.06214 -0.358562,0.205614 -0.541482,0.297937 -0.08809,0.04443 -0.205833,0.02553 -0.270742,0.111672 -0.08896,0.117875 -0.100278,0.297925 -0.150402,0.446894"
       id="path3363" />
    <path
       style="fill:none;stroke:#000000;stroke-width:0.547504px;stroke-linecap:butt;stroke-linejoin:miter;stroke-opacity:1"
       d="m 100.71573,82.441125 c -0.32088,0.161396 -0.66192,0.271406 -0.962637,0.484125 -0.666031,0.471175 -1.712882,1.711669 -1.203299,2.793144 0.201968,0.428643 0.537698,0.706568 0.902479,0.893821 1.069817,0.549147 2.333607,-0.189719 3.218817,-0.931052 0.47627,-0.398875 1.08675,-1.265807 0.66182,-2.011072 -0.0822,-0.144133 -0.15502,-0.306693 -0.27075,-0.409652 -0.80475,-0.716073 -1.93883,-0.830874 -2.88791,-0.595873"
       id="path3365" />
    <rect
       style="fill:none;fill-rule:evenodd;stroke-width:0.50270835;stroke:url(#linearGradient4606);stroke-miterlimit:4;stroke-dasharray:none"
       id="rect3741"
       width="107.12605"
       height="99.846771"
       x="12.835238"
       y="17.397562" />
    <rect
       style="fill:none;stroke-width:0.502708;stroke-miterlimit:4;stroke-dasharray:none;stroke:url(#linearGradient4646)"
       id="rect4640"
       width="107.17363"
       height="0.10436285"
       x="12.859728"
       y="101.03963" />
    <path
       style="fill:none;stroke:#000000;stroke-width:0.891733;stroke-linecap:butt;stroke-linejoin:miter;stroke-miterlimit:4;stroke-dasharray:none;stroke-opacity:1"
       d="m 44.312801,115.10485 c 1.274843,-0.68452 2.04451,-2.14724 2.600753,-3.42671 0.450004,-1.03509 0.806627,-2.12607 1.194725,-3.18659 0.181632,-0.49633 0.35525,-0.99692 0.512022,-1.50173 0.210235,-0.67694 0.03913,-0.16835 0.203184,-0.67151 0.01605,-0.0492 0.466705,-1.52419 0.280394,-1.39591 -0.420852,0.28976 -0.541367,3.31645 -0.121915,3.71973 0.999187,0.96064 2.538993,-1.62339 2.929915,-2.27904 0.109756,-0.1841 0.512159,-0.73768 0.406368,-0.98488 -0.04038,-0.0943 -0.154822,0.23189 -0.166612,0.26453 -0.121604,0.33669 -0.233247,0.67774 -0.357605,1.01336 -0.356201,0.96137 -0.624921,1.91514 -0.812734,2.92613 -0.234452,1.26206 -0.83238,3.62643 0.532344,4.44822 0.957173,0.57637 2.305148,0.003 3.250944,-0.32558"
       id="path4683" />
    <path
       style="fill:none;stroke:#000000;stroke-width:0.891733;stroke-linecap:butt;stroke-linejoin:miter;stroke-miterlimit:4;stroke-dasharray:none;stroke-opacity:1"
       d="m 56.270075,108.5981 c -0.647719,1.34912 -1.271538,2.97925 -1.158149,4.51331 0.02844,0.38495 0.07484,1.06296 0.459196,1.0622 1.417434,-0.003 2.755658,-2.65338 3.153415,-3.83368 0.05725,-0.16986 0.177237,-0.57328 0.231631,-0.83429 0.05879,-0.28214 0.09278,-0.58956 0.02844,-0.56568 -0.414678,0.1538 -0.759581,3.36911 -0.711144,3.78891 0.02516,0.21792 0.01151,0.50011 0.186931,0.6308 0.699551,0.5211 1.401307,0.12159 2.194387,-0.0692"
       id="path4685" />
    <path
       style="fill:none;stroke:#000000;stroke-width:0.891733;stroke-linecap:butt;stroke-linejoin:miter;stroke-miterlimit:4;stroke-dasharray:none;stroke-opacity:1"
       d="m 63.442471,109.51373 c -0.897379,-0.41978 -1.360303,-0.88093 -1.832719,1.24127 -0.349795,1.57136 1.377171,1.76292 1.145958,3.12555 -0.19625,1.15656 -1.95764,0.11302 -2.100923,-0.59012"
       id="path4687" />
    <path
       style="fill:none;stroke:#000000;stroke-width:0.891733;stroke-linecap:butt;stroke-linejoin:miter;stroke-miterlimit:4;stroke-dasharray:none;stroke-opacity:1"
       d="m 66.753704,108.96942 c -0.195058,-0.003 -0.428575,-0.12497 -0.585169,-0.008 -0.795023,0.59311 -2.245755,2.13232 -1.926187,3.38193 0.473591,1.85188 2.525744,0.67336 3.279391,0.0733"
       id="path4689" />
    <path
       style="fill:none;stroke:#000000;stroke-width:1.03908;stroke-linecap:butt;stroke-linejoin:miter;stroke-miterlimit:4;stroke-dasharray:none;stroke-opacity:1"
       d="m 69.235192,109.54712 c -0.480785,1.23376 -0.915704,2.53013 0.844895,3.06775 0.206568,0.063 0.41328,-0.12575 0.619923,-0.18865"
       id="path4691" />
    <path
       style="fill:none;stroke:#000000;stroke-width:1.03908;stroke-linecap:butt;stroke-linejoin:miter;stroke-miterlimit:4;stroke-dasharray:none;stroke-opacity:1"
       d="m 69.292609,106.41752 c 0.788729,0.62141 0.670235,-0.18089 0.42495,-0.1572 -0.152262,0.0145 -0.283299,0.10483 -0.42495,0.1572 z"
       id="path4693" />
    <path
       style="fill:none;stroke:#000000;stroke-width:0.891733;stroke-linecap:butt;stroke-linejoin:miter;stroke-miterlimit:4;stroke-dasharray:none;stroke-opacity:1"
       d="m 73.656362,104.46512 c -0.761029,2.59839 -1.996854,5.07238 -1.019982,7.86678 0.442,1.26437 1.431445,0.0582 1.682363,-0.17907"
       id="path4695" />
    <path
       style="fill:none;stroke:#000000;stroke-width:0.891733;stroke-linecap:butt;stroke-linejoin:miter;stroke-miterlimit:4;stroke-dasharray:none;stroke-opacity:1"
       d="m 71.616396,109.43426 c 2.440605,-0.2132 1.351671,-0.0175 3.283454,-0.4843"
       id="path4697" />
    <path
       style="fill:none;stroke:#000000;stroke-width:0.891733;stroke-linecap:butt;stroke-linejoin:miter;stroke-miterlimit:4;stroke-dasharray:none;stroke-opacity:1"
       d="m 77.240886,108.77905 c 0.399697,0.88289 0.260353,2.17842 0.902137,2.88544"
       id="path4699" />
    <path
       style="fill:none;stroke:#000000;stroke-width:0.891733;stroke-linecap:butt;stroke-linejoin:miter;stroke-miterlimit:4;stroke-dasharray:none;stroke-opacity:1"
       d="m 79.870088,108.92149 c -1.693652,2.42262 -3.208638,4.93324 -4.531004,7.5819"
       id="path4701" />
    <path
       style="fill:none;stroke:#000000;stroke-width:0.548758;stroke-linecap:butt;stroke-linejoin:miter;stroke-miterlimit:4;stroke-dasharray:none;stroke-opacity:1"
       d="m 62.978739,114.01113 c 0.267304,-0.32305 0.383178,-0.87816 0.751419,-1.12019 0.132664,-0.0872 0.313424,-0.0487 0.44741,-0.14936"
       id="path4816" />
    <path
       style="fill:none;stroke:#000000;stroke-width:0.65165;stroke-linecap:butt;stroke-linejoin:miter;stroke-miterlimit:4;stroke-dasharray:none;stroke-opacity:1"
       d="m 67.521739,112.41683 c 0.429267,-0.0422 1.05997,-0.12068 1.476964,0.11795"
       id="path4818" />
    <path
       style="fill:none;stroke:#000000;stroke-width:0.65165;stroke-linecap:butt;stroke-linejoin:miter;stroke-miterlimit:4;stroke-dasharray:none;stroke-opacity:1"
       d="m 67.521739,112.41683 c 2.255662,0.42532 -0.384909,0.0288 1.158615,0.0288 0.110156,0 0.212232,0.0594 0.318349,0.089"
       id="path4820" />
    <path
       style="fill:none;stroke:#000000;stroke-width:0.677618;stroke-linecap:butt;stroke-linejoin:miter;stroke-miterlimit:4;stroke-dasharray:none;stroke-opacity:1"
       d="m 70.232068,112.42622 c 0.02396,0.15299 -0.02297,0.32648 0.07187,0.45898 0.04897,0.0685 0.188734,0.0257 0.283337,0.0373 0.510088,0.0625 2.022199,0.25331 2.397972,-0.0747"
       id="path4822" />
    <path
       style="fill:none;stroke:#000000;stroke-width:0.65165;stroke-linecap:butt;stroke-linejoin:miter;stroke-miterlimit:4;stroke-dasharray:none;stroke-opacity:1"
       d="m 74.318744,112.15283 c -0.01335,0.0995 -0.139977,0.29496 -0.04002,0.29866 0.271479,0.0104 1.013568,-0.49053 1.216036,-0.6434 0.879357,-0.66392 1.278908,-1.1514 1.67779,-2.13411 0.07711,-0.18996 0.163381,-0.38201 0.197892,-0.58594 0.0075,-0.0446 0.01424,-0.1781 -0.0545,-0.18957 -0.141507,-0.0237 -0.04631,0.38827 -0.07506,-0.11939"
       id="path4824" />
  </g>
</svg>
